<?xml version="1.0" encoding="utf-8"?>
<!-- Generator: Adobe Illustrator 15.1.0, SVG Export Plug-In . SVG Version: 6.00 Build 0)  -->
<!DOCTYPE svg PUBLIC "-//W3C//DTD SVG 1.1//EN" "http://www.w3.org/Graphics/SVG/1.1/DTD/svg11.dtd">
<svg version="1.1" id="Ebene_1" xmlns="http://www.w3.org/2000/svg" xmlns:xlink="http://www.w3.org/1999/xlink" x="0px" y="0px"
	 width="500px" height="500px" viewBox="0 0 500 500" enable-background="new 0 0 500 500" xml:space="preserve">
<line fill="none" stroke="#FFFFFF" stroke-width="16" stroke-miterlimit="10" x1="77.658" y1="64" x2="77.658" y2="426.85"/>
<line fill="none" stroke="#FFFFFF" stroke-width="16" stroke-miterlimit="10" x1="76.269" y1="426.85" x2="448" y2="426.85"/>
<path fill="#FFFFFF" stroke="#FFFFFF" stroke-width="3" stroke-miterlimit="10" d="M210.841,365.903
	c0,6.898-5.596,12.496-12.5,12.496c-6.905,0-12.5-5.598-12.5-12.496c0-6.905,5.595-12.499,12.5-12.499
	C205.245,353.404,210.841,358.998,210.841,365.903z"/>
<path fill="#FFFFFF" stroke="#FFFFFF" stroke-width="3" stroke-miterlimit="10" d="M207.958,136.493
	c0,6.9-5.596,12.497-12.498,12.497c-6.906,0-12.502-5.596-12.502-12.497c0-6.906,5.596-12.501,12.502-12.501
	C202.362,123.992,207.958,129.587,207.958,136.493z"/>
<circle fill="#FFFFFF" stroke="#FFFFFF" stroke-width="3" stroke-miterlimit="10" cx="154.389" cy="306.121" r="12.5"/>
<path fill="#FFFFFF" stroke="#FFFFFF" stroke-width="3" stroke-miterlimit="10" d="M274.634,277.047
	c0,6.905-5.593,12.499-12.498,12.499c-6.908,0-12.502-5.594-12.502-12.499c0-6.904,5.594-12.502,12.502-12.502
	C269.041,264.545,274.634,270.143,274.634,277.047z"/>
<circle fill="#FFFFFF" stroke="#FFFFFF" stroke-width="3" stroke-miterlimit="10" cx="198.341" cy="245.425" r="12.5"/>
<path fill="#FFFFFF" stroke="#FFFFFF" stroke-width="3" stroke-miterlimit="10" d="M302.088,346.413
	c0,6.905-5.593,12.499-12.498,12.499c-6.908,0-12.502-5.594-12.502-12.499c0-6.908,5.594-12.501,12.502-12.501
	C296.495,333.912,302.088,339.505,302.088,346.413z"/>
<circle fill="#FFFFFF" stroke="#FFFFFF" stroke-width="3" stroke-miterlimit="10" cx="357.342" cy="225.342" r="12.5"/>
<circle fill="#FFFFFF" stroke="#FFFFFF" stroke-width="3" stroke-miterlimit="10" cx="277.088" cy="197.484" r="12.5"/>
<path fill="#FFFFFF" stroke="#FFFFFF" stroke-width="3" stroke-miterlimit="10" d="M417.537,155.638
	c0,6.899-5.594,12.495-12.502,12.495c-6.905,0-12.498-5.595-12.498-12.495c0-6.905,5.593-12.5,12.498-12.5
	C411.943,143.138,417.537,148.733,417.537,155.638z"/>
<path fill="#FFFFFF" stroke="#FFFFFF" stroke-width="3" stroke-miterlimit="10" d="M289.588,123.991c0,6.905-5.593,12.5-12.498,12.5
	c-6.908,0-12.502-5.595-12.502-12.5c0-6.901,5.594-12.496,12.502-12.496C283.995,111.495,289.588,117.09,289.588,123.991z"/>
<path fill="#FFFFFF" stroke="#FFFFFF" stroke-width="3" stroke-miterlimit="10" d="M388.646,289.545c0,6.906-5.594,12.5-12.5,12.5
	c-6.909,0-12.503-5.594-12.503-12.5s5.594-12.5,12.503-12.5C383.053,277.045,388.646,282.639,388.646,289.545z"/>
<circle fill="#FFFFFF" stroke="#FFFFFF" stroke-width="3" stroke-miterlimit="10" cx="141.889" cy="193.482" r="12.5"/>
<path fill="none" stroke="#FFFFFF" stroke-width="20" stroke-miterlimit="10" d="M489.334,477.36c0,6.336-5.145,11.473-11.49,11.473
	H22.154c-6.344,0-11.487-5.137-11.487-11.473V22.305c0-6.336,5.144-11.472,11.487-11.472h455.69c6.346,0,11.49,5.136,11.49,11.472
	V477.36z"/>
</svg>
