<?xml version="1.0" encoding="utf-8"?>
<!-- Generator: Adobe Illustrator 15.1.0, SVG Export Plug-In . SVG Version: 6.00 Build 0)  -->
<!DOCTYPE svg PUBLIC "-//W3C//DTD SVG 1.1//EN" "http://www.w3.org/Graphics/SVG/1.1/DTD/svg11.dtd">
<svg version="1.1" id="Ebene_1" xmlns="http://www.w3.org/2000/svg" xmlns:xlink="http://www.w3.org/1999/xlink" x="0px" y="0px"
	 width="500px" height="500px" viewBox="0 0 500 500" enable-background="new 0 0 500 500" xml:space="preserve">
<path fill="none" stroke="#FFFFFF" stroke-width="20" stroke-miterlimit="10" d="M489.667,477.777
	c0,6.336-5.144,11.473-11.489,11.473H22.487c-6.344,0-11.487-5.137-11.487-11.473V22.722c0-6.336,5.144-11.472,11.487-11.472h455.69
	c6.346,0,11.489,5.136,11.489,11.472V477.777z"/>
<path fill="none" stroke="#FFFFFF" stroke-width="24" stroke-miterlimit="10" d="M374.246,419.484c0,4.598-2.689,8.324-6.002,8.324
	H130.246c-3.313,0-6-3.727-6-8.324V89.324c0-4.598,2.686-8.324,6-8.324h237.998c3.313,0,6.002,3.726,6.002,8.324V419.484z"/>
<path fill="#FFFFFF" stroke="#FFFFFF" stroke-width="24" stroke-miterlimit="10" d="M294.283,96.028c0,6.241-5.061,11.3-11.301,11.3
	h-66.544c-6.241,0-11.3-5.059-11.3-11.3V70.917c0-6.241,5.059-11.3,11.3-11.3h66.544c6.24,0,11.301,5.059,11.301,11.3V96.028z"/>
<line fill="none" stroke="#FFFFFF" stroke-width="24" stroke-miterlimit="10" x1="159.938" y1="194.114" x2="337.6" y2="195.37"/>
<line fill="none" stroke="#FFFFFF" stroke-width="24" stroke-miterlimit="10" x1="159.938" y1="259.623" x2="337.6" y2="260.877"/>
<line fill="none" stroke="#FFFFFF" stroke-width="24" stroke-miterlimit="10" x1="161.821" y1="323.635" x2="339.484" y2="324.889"/>
</svg>
