<?xml version="1.0" encoding="utf-8"?>
<!-- Generator: Adobe Illustrator 15.1.0, SVG Export Plug-In . SVG Version: 6.00 Build 0)  -->
<!DOCTYPE svg PUBLIC "-//W3C//DTD SVG 1.1//EN" "http://www.w3.org/Graphics/SVG/1.1/DTD/svg11.dtd">
<svg version="1.1" id="Ebene_1" xmlns="http://www.w3.org/2000/svg" xmlns:xlink="http://www.w3.org/1999/xlink" x="0px" y="0px"
	 width="500px" height="500px" viewBox="0 0 500 500" enable-background="new 0 0 500 500" xml:space="preserve">
<line fill="none" stroke="#B3B3B3" stroke-width="6" stroke-miterlimit="10" x1="43.364" y1="250.245" x2="464.387" y2="250"/>
<line fill="none" stroke="#B3B3B3" stroke-width="6" stroke-miterlimit="10" x1="253.998" y1="455.757" x2="253.753" y2="34.733"/>
<line fill="none" stroke="#B3B3B3" stroke-width="6" stroke-miterlimit="10" x1="109.18" y1="394.186" x2="406.715" y2="96.305"/>
<line fill="none" stroke="#B3B3B3" stroke-width="6" stroke-miterlimit="10" x1="100.059" y1="97.232" x2="397.941" y2="394.768"/>
<polygon fill="none" stroke="#FFFFFF" stroke-width="10" stroke-miterlimit="10" points="204.627,298.627 253.998,407.667 
	362.233,359.101 415,250.245 379.192,123.859 253.753,78.333 132.766,129.901 89,250.245 "/>
<circle fill="#FFFFFF" stroke="#FFFFFF" stroke-width="3" stroke-miterlimit="10" cx="89.625" cy="250.245" r="10"/>
<circle fill="#FFFFFF" stroke="#FFFFFF" stroke-width="3" stroke-miterlimit="10" cx="204.627" cy="298.627" r="10"/>
<circle fill="#FFFFFF" stroke="#FFFFFF" stroke-width="3" stroke-miterlimit="10" cx="254.154" cy="406.261" r="10"/>
<circle fill="#FFFFFF" stroke="#FFFFFF" stroke-width="3" stroke-miterlimit="10" cx="362.233" cy="359.101" r="10"/>
<circle fill="#FFFFFF" stroke="#FFFFFF" stroke-width="3" stroke-miterlimit="10" cx="414.583" cy="250.245" r="10"/>
<circle fill="#FFFFFF" stroke="#FFFFFF" stroke-width="3" stroke-miterlimit="10" cx="379.192" cy="123.859" r="10"/>
<circle fill="#FFFFFF" stroke="#FFFFFF" stroke-width="3" stroke-miterlimit="10" cx="253.753" cy="78.333" r="10"/>
<circle fill="#FFFFFF" stroke="#FFFFFF" stroke-width="3" stroke-miterlimit="10" cx="132.766" cy="129.901" r="10"/>
<path fill="none" stroke="#FFFFFF" stroke-width="20" stroke-miterlimit="10" d="M489.334,477.772
	c0,6.336-5.145,11.473-11.49,11.473H22.154c-6.344,0-11.487-5.137-11.487-11.473V22.717c0-6.336,5.144-11.472,11.487-11.472h455.69
	c6.346,0,11.49,5.136,11.49,11.472V477.772z"/>
</svg>
